<svg width="30" height="30" viewBox="0 0 30 30" fill="none" xmlns="http://www.w3.org/2000/svg">
<g id="icon-more">
<path id="Vector" d="M2.8125 15C2.8125 17.4105 3.52728 19.7668 4.86646 21.771C6.20564 23.7752 8.10907 25.3373 10.336 26.2598C12.563 27.1822 15.0135 27.4236 17.3777 26.9533C19.7418 26.4831 21.9134 25.3223 23.6179 23.6179C25.3223 21.9134 26.4831 19.7418 26.9533 17.3777C27.4236 15.0135 27.1822 12.563 26.2598 10.336C25.3373 8.10907 23.7752 6.20564 21.771 4.86646C19.7668 3.52728 17.4105 2.81249 15 2.81249C11.7687 2.81591 8.67076 4.10104 6.3859 6.3859C4.10104 8.67076 2.81591 11.7687 2.8125 15ZM25.3125 15C25.3125 17.0396 24.7077 19.0334 23.5745 20.7293C22.4414 22.4252 20.8308 23.747 18.9464 24.5275C17.0621 25.308 14.9886 25.5123 12.9881 25.1143C10.9877 24.7164 9.15019 23.7343 7.70796 22.292C6.26573 20.8498 5.28356 19.0123 4.88565 17.0119C4.48774 15.0114 4.69196 12.9379 5.47249 11.0536C6.25302 9.16921 7.5748 7.55862 9.27068 6.42546C10.9666 5.29231 12.9604 4.68749 15 4.68749C17.7341 4.69059 20.3553 5.77808 22.2886 7.71138C24.2219 9.64468 25.3094 12.2659 25.3125 15ZM15.2742 10.5867C15.3613 10.4995 15.4647 10.4304 15.5785 10.3832C15.6923 10.336 15.8143 10.3118 15.9375 10.3118C16.0607 10.3118 16.1827 10.336 16.2965 10.3832C16.4103 10.4304 16.5137 10.4995 16.6008 10.5867L20.3508 14.3367C20.4379 14.4238 20.5071 14.5272 20.5543 14.641C20.6015 14.7548 20.6257 14.8768 20.6257 15C20.6257 15.1232 20.6015 15.2452 20.5543 15.359C20.5071 15.4728 20.4379 15.5762 20.3508 15.6633L16.6008 19.4133C16.4249 19.5892 16.1863 19.688 15.9375 19.688C15.6887 19.688 15.4501 19.5892 15.2742 19.4133C15.0983 19.2374 14.9995 18.9988 14.9995 18.75C14.9995 18.5012 15.0983 18.2626 15.2742 18.0867L17.4246 15.9375L10.3125 15.9375C10.0639 15.9375 9.8254 15.8387 9.64959 15.6629C9.47377 15.4871 9.375 15.2486 9.375 15C9.375 14.7514 9.47377 14.5129 9.64959 14.3371C9.8254 14.1613 10.0639 14.0625 10.3125 14.0625L17.4246 14.0625L15.2742 11.9133C15.1871 11.8262 15.1179 11.7228 15.0707 11.609C15.0235 11.4952 14.9993 11.3732 14.9993 11.25C14.9993 11.1268 15.0235 11.0048 15.0707 10.891C15.1179 10.7772 15.1871 10.6738 15.2742 10.5867Z" fill="#0063B0"/>
</g>
</svg>
