<svg width="30" height="30" viewBox="0 0 30 30" fill="none" xmlns="http://www.w3.org/2000/svg">
<path d="M20.6181 4.4873C18.1997 4.4873 16.1331 6.21115 14.9977 7.39961C13.8624 6.21115 11.8004 4.4873 9.38312 4.4873C5.21659 4.4873 2.30774 7.39154 2.30774 11.5488C2.30774 16.1296 5.92043 19.0904 9.41543 21.9542C11.0654 23.3077 12.7731 24.7062 14.0827 26.2569C14.3031 26.5165 14.6262 26.6665 14.9654 26.6665H15.0324C15.3727 26.6665 15.6947 26.5154 15.9139 26.2569C17.2258 24.7062 18.9324 23.3065 20.5835 21.9542C24.0774 19.0915 27.6924 16.1308 27.6924 11.5488C27.6924 7.39154 24.7835 4.4873 20.6181 4.4873Z" fill="#0063B0"/>
</svg>
