<svg width="20" height="21" viewBox="0 0 20 21" fill="none" xmlns="http://www.w3.org/2000/svg">
<path d="M16.5625 3.625H3.4375C2.85753 3.62562 2.30149 3.85629 1.89139 4.26639C1.48129 4.67649 1.25062 5.23253 1.25 5.8125V15.1875C1.25062 15.7675 1.48129 16.3235 1.89139 16.7336C2.30149 17.1437 2.85753 17.3744 3.4375 17.375H16.5625C17.1425 17.3744 17.6985 17.1437 18.1086 16.7336C18.5187 16.3235 18.7494 15.7675 18.75 15.1875V5.8125C18.7494 5.23253 18.5187 4.67649 18.1086 4.26639C17.6985 3.85629 17.1425 3.62562 16.5625 3.625ZM16.0086 7.24336L10.3836 11.6184C10.2739 11.7036 10.1389 11.7499 10 11.7499C9.86107 11.7499 9.72609 11.7036 9.61641 11.6184L3.99141 7.24336C3.92532 7.19345 3.86981 7.13091 3.8281 7.05936C3.78639 6.98781 3.75932 6.90869 3.74846 6.82659C3.73759 6.74449 3.74315 6.66104 3.76482 6.58111C3.78648 6.50118 3.82381 6.42635 3.87465 6.36097C3.92548 6.29559 3.9888 6.24096 4.06093 6.20027C4.13306 6.15957 4.21255 6.13362 4.2948 6.12391C4.37704 6.1142 4.4604 6.12094 4.54002 6.14372C4.61964 6.16651 4.69394 6.20489 4.75859 6.25664L10 10.3332L15.2414 6.25664C15.3725 6.15766 15.5372 6.11426 15.7 6.1358C15.8629 6.15734 16.0107 6.24211 16.1115 6.37177C16.2123 6.50142 16.258 6.66555 16.2387 6.82866C16.2195 6.99176 16.1368 7.14073 16.0086 7.24336Z" fill="#84C0EA"/>
</svg>
