<svg width="22" height="22" viewBox="0 0 22 22" fill="none" xmlns="http://www.w3.org/2000/svg">
<g clip-path="url(#clip0_2_4496)">
<path fill-rule="evenodd" clip-rule="evenodd" d="M4.70824 9.25C4.70824 8.08968 5.16918 6.97688 5.98965 6.15641C6.81012 5.33594 7.92292 4.875 9.08324 4.875C10.2436 4.875 11.3564 5.33594 12.1768 6.15641C12.9973 6.97688 13.4582 8.08968 13.4582 9.25C13.4582 10.4103 12.9973 11.5231 12.1768 12.3436C11.3564 13.1641 10.2436 13.625 9.08324 13.625C7.92292 13.625 6.81012 13.1641 5.98965 12.3436C5.16918 11.5231 4.70824 10.4103 4.70824 9.25ZM9.08324 3.125C8.11309 3.125 7.15682 3.35545 6.29318 3.79738C5.42953 4.2393 4.68321 4.88006 4.11567 5.66688C3.54813 6.4537 3.17562 7.36408 3.0288 8.32306C2.88198 9.28203 2.96506 10.2622 3.27119 11.1827C3.57732 12.1033 4.09774 12.938 4.78961 13.6181C5.48148 14.2982 6.325 14.8042 7.25071 15.0944C8.17642 15.3847 9.15783 15.4509 10.1141 15.2876C11.0704 15.1243 11.9743 14.7362 12.7512 14.1552L17.2137 18.6186C17.3778 18.7828 17.6004 18.8751 17.8325 18.8752C18.0646 18.8753 18.2872 18.7831 18.4514 18.6191C18.6156 18.455 18.7079 18.2324 18.708 18.0003C18.7081 17.7682 18.6159 17.5456 18.4519 17.3814L13.9894 12.9189C14.6704 12.0085 15.0846 10.9264 15.1856 9.79396C15.2865 8.66149 15.0703 7.52326 14.5611 6.50671C14.0519 5.49016 13.2697 4.63541 12.3023 4.03815C11.3348 3.4409 10.2202 3.12471 9.08324 3.125Z" fill="white"/>
</g>
<defs>
<clipPath id="clip0_2_4496">
<rect width="21" height="21" fill="white" transform="translate(0.333252 0.5)"/>
</clipPath>
</defs>
</svg>
