<svg width="30" height="30" viewBox="0 0 30 30" fill="none" xmlns="http://www.w3.org/2000/svg">
<path fill-rule="evenodd" clip-rule="evenodd" d="M18.3313 2.91244C18.5536 2.8013 18.8109 2.78298 19.0467 2.8615C19.2825 2.94002 19.4775 3.10896 19.5888 3.33119L22.34 8.83369C24.0313 8.96369 25.0925 9.29619 25.7775 10.1424C26.9025 11.5349 26.4538 13.6299 25.5563 17.8212L25.02 20.3212C24.4113 23.1624 24.1075 24.5824 23.0763 25.4162C22.045 26.2499 20.5925 26.2499 17.6875 26.2499H12.3125C9.40751 26.2499 7.95501 26.2499 6.92501 25.4162C5.89251 24.5824 5.58751 23.1624 4.98001 20.3212L4.44376 17.8212C3.54626 13.6299 3.09626 11.5349 4.22251 10.1424C4.90751 9.29494 5.96876 8.96369 7.66001 8.83369L10.4113 3.33119C10.5235 3.11073 10.7183 2.94355 10.9532 2.8661C11.1882 2.78864 11.4442 2.80719 11.6655 2.91769C11.8868 3.02818 12.0555 3.22168 12.1348 3.45601C12.2141 3.69034 12.1975 3.94651 12.0888 4.16869L9.79501 8.75619C10.3988 8.74994 11.0575 8.74994 11.7775 8.74994H18.2225C18.9425 8.74994 19.6013 8.74994 20.205 8.75619L17.9113 4.16869C17.8002 3.94624 17.7821 3.68878 17.8608 3.45296C17.9396 3.21713 18.1088 3.0235 18.3313 2.91244ZM9.06251 14.9999C9.06251 14.7513 9.16128 14.5128 9.33709 14.337C9.51291 14.1612 9.75137 14.0624 10 14.0624H20C20.2486 14.0624 20.4871 14.1612 20.6629 14.337C20.8387 14.5128 20.9375 14.7513 20.9375 14.9999C20.9375 15.2486 20.8387 15.487 20.6629 15.6629C20.4871 15.8387 20.2486 15.9374 20 15.9374H10C9.75137 15.9374 9.51291 15.8387 9.33709 15.6629C9.16128 15.487 9.06251 15.2486 9.06251 14.9999ZM12.5 17.8124C12.2514 17.8124 12.0129 17.9112 11.8371 18.087C11.6613 18.2628 11.5625 18.5013 11.5625 18.7499C11.5625 18.9986 11.6613 19.237 11.8371 19.4129C12.0129 19.5887 12.2514 19.6874 12.5 19.6874H17.5C17.7486 19.6874 17.9871 19.5887 18.1629 19.4129C18.3387 19.237 18.4375 18.9986 18.4375 18.7499C18.4375 18.5013 18.3387 18.2628 18.1629 18.087C17.9871 17.9112 17.7486 17.8124 17.5 17.8124H12.5Z" fill="#0063B0"/>
</svg>
